<?xml version="1.0" encoding="UTF-8"?>
<svg id="Layer_1" data-name="Layer 1" xmlns="http://www.w3.org/2000/svg" xmlns:xlink="http://www.w3.org/1999/xlink" viewBox="0 0 184.03 202.05">
  <defs>
    <style>
      .cls-1 {
        fill: none;
      }

      .cls-2 {
        clip-path: url(#clippath);
      }

      .cls-3 {
        fill: #fff;
      }

      .cls-4 {
        fill: #e41d3f;
      }

      .cls-5 {
        fill: #122f52;
      }

      .cls-6 {
        fill: #123054;
      }

      .cls-7 {
        fill: #123053;
      }

      .cls-8 {
        fill: #14345a;
      }

      .cls-9 {
        fill: #143459;
      }

      .cls-10 {
        fill: #112e51;
      }

      .cls-11 {
        fill: #183a64;
      }

      .cls-12 {
        fill: #183b65;
      }

      .cls-13 {
        fill: #183c66;
      }

      .cls-14 {
        fill: #173963;
      }

      .cls-15 {
        fill: #173962;
      }

      .cls-16 {
        fill: #173a63;
      }

      .cls-17 {
        fill: #173860;
      }

      .cls-18 {
        fill: #173961;
      }

      .cls-19 {
        fill: #16365d;
      }

      .cls-20 {
        fill: #16375e;
      }

      .cls-21 {
        fill: #16375f;
      }

      .cls-22 {
        fill: #163860;
      }

      .cls-23 {
        fill: #1f4f88;
      }

      .cls-24 {
        fill: #1f4f89;
      }

      .cls-25 {
        fill: #1f508b;
      }

      .cls-26 {
        fill: #1f508a;
      }

      .cls-27 {
        fill: #1f4e87;
      }

      .cls-28 {
        fill: #1f4e88;
      }

      .cls-29 {
        fill: #1f4e86;
      }

      .cls-30 {
        fill: #1e4d85;
      }

      .cls-31 {
        fill: #1e4d84;
      }

      .cls-32 {
        fill: #1e4c84;
      }

      .cls-33 {
        fill: #1e4c83;
      }

      .cls-34 {
        fill: #1e4b82;
      }

      .cls-35 {
        fill: #1e4b80;
      }

      .cls-36 {
        fill: #1e4b81;
      }

      .cls-37 {
        fill: #1e4a80;
      }

      .cls-38 {
        fill: #1e4a7f;
      }

      .cls-39 {
        fill: #133256;
      }

      .cls-40 {
        fill: #133154;
      }

      .cls-41 {
        fill: #133155;
      }

      .cls-42 {
        fill: #205390;
      }

      .cls-43 {
        fill: #205492;
      }

      .cls-44 {
        fill: #205391;
      }

      .cls-45 {
        fill: #205593;
      }

      .cls-46 {
        fill: #205594;
      }

      .cls-47 {
        fill: #1f528f;
      }

      .cls-48 {
        fill: #1f528e;
      }

      .cls-49 {
        fill: #1f518d;
      }

      .cls-50 {
        fill: #1f518c;
      }

      .cls-51 {
        fill: #143358;
      }

      .cls-52 {
        fill: #143257;
      }

      .cls-53 {
        fill: #15355b;
      }

      .cls-54 {
        fill: #15355c;
      }

      .cls-55 {
        fill: #15365d;
      }

      .cls-56 {
        fill: #193d69;
      }

      .cls-57 {
        fill: #193e6a;
      }

      .cls-58 {
        fill: #193e6b;
      }

      .cls-59 {
        fill: #193d68;
      }

      .cls-60 {
        fill: #193c68;
      }

      .cls-61 {
        fill: #193c67;
      }

      .cls-62 {
        fill: #1d487d;
      }

      .cls-63 {
        fill: #1d497d;
      }

      .cls-64 {
        fill: #1d497e;
      }

      .cls-65 {
        fill: #1d487c;
      }

      .cls-66 {
        fill: #1d487b;
      }

      .cls-67 {
        fill: #1d477a;
      }

      .cls-68 {
        fill: #1c4678;
      }

      .cls-69 {
        fill: #1c4679;
      }

      .cls-70 {
        fill: #1b4373;
      }

      .cls-71 {
        fill: #1b4170;
      }

      .cls-72 {
        fill: #1a3f6b;
      }

      .cls-73 {
        fill: #1a3f6d;
      }

      .cls-74 {
        fill: #1a3f6c;
      }

      .cls-75 {
        fill: #1a406e;
      }

      .cls-76 {
        fill: #1a416f;
      }

      .cls-77 {
        fill: #1c4577;
      }

      .cls-78 {
        fill: #1c4576;
      }

      .cls-79 {
        fill: #1c4474;
      }

      .cls-80 {
        fill: #1c4475;
      }

      .cls-81 {
        fill: #1b4271;
      }

      .cls-82 {
        fill: #1b4270;
      }

      .cls-83 {
        fill: #1b4272;
      }
    </style>
    <clipPath id="clippath">
      <rect class="cls-1" width="159.64" height="159.64"/>
    </clipPath>
  </defs>
  <g>
    <g class="cls-2">
      <rect class="cls-10" width="159.64" height="159.64"/>
      <circle class="cls-10" cx="79.82" cy="79.82" r="79.82"/>
      <circle class="cls-10" cx="79.82" cy="79.82" r="75.67"/>
      <circle class="cls-10" cx="79.82" cy="79.82" r="71.53"/>
      <circle class="cls-5" cx="79.82" cy="79.82" r="70.74"/>
      <circle class="cls-5" cx="79.82" cy="79.82" r="69.94"/>
      <circle class="cls-7" cx="79.82" cy="79.82" r="69.15"/>
      <circle class="cls-6" cx="79.82" cy="79.82" r="68.35"/>
      <circle class="cls-40" cx="79.82" cy="79.82" r="67.56"/>
      <circle class="cls-41" cx="79.82" cy="79.82" r="66.76"/>
      <circle class="cls-39" cx="79.82" cy="79.82" r="65.97"/>
      <circle class="cls-39" cx="79.82" cy="79.82" r="65.17"/>
      <circle class="cls-52" cx="79.82" cy="79.82" r="64.38"/>
      <circle class="cls-51" cx="79.82" cy="79.82" r="63.58"/>
      <circle class="cls-51" cx="79.82" cy="79.82" r="62.79"/>
      <circle class="cls-9" cx="79.82" cy="79.82" r="61.99"/>
      <circle class="cls-8" cx="79.82" cy="79.82" r="61.2"/>
      <circle class="cls-53" cx="79.82" cy="79.82" r="60.4"/>
      <circle class="cls-53" cx="79.82" cy="79.82" r="59.61"/>
      <circle class="cls-54" cx="79.82" cy="79.82" r="58.81"/>
      <circle class="cls-55" cx="79.82" cy="79.82" r="58.02"/>
      <circle class="cls-19" cx="79.82" cy="79.82" r="57.22"/>
      <circle class="cls-20" cx="79.82" cy="79.82" r="56.43"/>
      <circle class="cls-21" cx="79.82" cy="79.82" r="55.63"/>
      <circle class="cls-22" cx="79.82" cy="79.82" r="54.84"/>
      <circle class="cls-17" cx="79.82" cy="79.82" r="54.04"/>
      <circle class="cls-18" cx="79.82" cy="79.82" r="53.25"/>
      <circle class="cls-15" cx="79.82" cy="79.82" r="52.46"/>
      <circle class="cls-14" cx="79.82" cy="79.82" r="51.66"/>
      <circle class="cls-16" cx="79.82" cy="79.82" r="50.87"/>
      <circle class="cls-11" cx="79.82" cy="79.82" r="50.07"/>
      <circle class="cls-12" cx="79.82" cy="79.82" r="49.28"/>
      <circle class="cls-12" cx="79.82" cy="79.82" r="48.48"/>
      <circle class="cls-13" cx="79.82" cy="79.82" r="47.69"/>
      <circle class="cls-61" cx="79.82" cy="79.82" r="46.89"/>
      <circle class="cls-60" cx="79.82" cy="79.82" r="46.1"/>
      <circle class="cls-59" cx="79.82" cy="79.82" r="45.3"/>
      <circle class="cls-56" cx="79.82" cy="79.82" r="44.51"/>
      <circle class="cls-57" cx="79.82" cy="79.82" r="43.71"/>
      <circle class="cls-58" cx="79.82" cy="79.82" r="42.92"/>
      <circle class="cls-72" cx="79.82" cy="79.82" r="42.12"/>
      <circle class="cls-74" cx="79.82" cy="79.82" r="41.33"/>
      <circle class="cls-73" cx="79.82" cy="79.82" r="40.53"/>
      <circle class="cls-75" cx="79.82" cy="79.82" r="39.74"/>
      <circle class="cls-75" cx="79.82" cy="79.82" r="38.94"/>
      <circle class="cls-76" cx="79.82" cy="79.82" r="38.15"/>
      <circle class="cls-71" cx="79.82" cy="79.82" r="37.35"/>
      <circle class="cls-82" cx="79.82" cy="79.82" r="36.56"/>
      <circle class="cls-81" cx="79.82" cy="79.82" r="35.76"/>
      <circle class="cls-83" cx="79.82" cy="79.82" r="34.97"/>
      <circle class="cls-70" cx="79.82" cy="79.82" r="34.18"/>
      <circle class="cls-70" cx="79.82" cy="79.82" r="33.38"/>
      <circle class="cls-79" cx="79.82" cy="79.82" r="32.59"/>
      <circle class="cls-80" cx="79.82" cy="79.82" r="31.79"/>
      <circle class="cls-78" cx="79.82" cy="79.82" r="31"/>
      <circle class="cls-77" cx="79.82" cy="79.82" r="30.2"/>
      <circle class="cls-77" cx="79.82" cy="79.82" r="29.41"/>
      <circle class="cls-68" cx="79.82" cy="79.82" r="28.61"/>
      <circle class="cls-69" cx="79.82" cy="79.82" r="27.82"/>
      <circle class="cls-67" cx="79.82" cy="79.82" r="27.02"/>
      <circle class="cls-67" cx="79.82" cy="79.82" r="26.23"/>
      <circle class="cls-66" cx="79.82" cy="79.82" r="25.43"/>
      <circle class="cls-65" cx="79.82" cy="79.82" r="24.64"/>
      <circle class="cls-62" cx="79.82" cy="79.82" r="23.84"/>
      <circle class="cls-63" cx="79.82" cy="79.82" r="23.05"/>
      <circle class="cls-64" cx="79.82" cy="79.82" r="22.25"/>
      <circle class="cls-38" cx="79.82" cy="79.82" r="21.46"/>
      <circle class="cls-37" cx="79.82" cy="79.82" r="20.66"/>
      <circle class="cls-35" cx="79.82" cy="79.82" r="19.87"/>
      <circle class="cls-36" cx="79.82" cy="79.82" r="19.07"/>
      <circle class="cls-34" cx="79.82" cy="79.82" r="18.28"/>
      <circle class="cls-33" cx="79.82" cy="79.82" r="17.49"/>
      <circle class="cls-32" cx="79.82" cy="79.82" r="16.69"/>
      <circle class="cls-31" cx="79.82" cy="79.82" r="15.9"/>
      <circle class="cls-30" cx="79.82" cy="79.82" r="15.1"/>
      <circle class="cls-29" cx="79.82" cy="79.82" r="14.31"/>
      <circle class="cls-27" cx="79.82" cy="79.82" r="13.51"/>
      <circle class="cls-28" cx="79.82" cy="79.82" r="12.72"/>
      <circle class="cls-23" cx="79.82" cy="79.82" r="11.92"/>
      <circle class="cls-24" cx="79.82" cy="79.82" r="11.13"/>
      <circle class="cls-26" cx="79.82" cy="79.82" r="10.33"/>
      <circle class="cls-25" cx="79.82" cy="79.82" r="9.54"/>
      <circle class="cls-50" cx="79.82" cy="79.82" r="8.74"/>
      <circle class="cls-50" cx="79.82" cy="79.82" r="7.95"/>
      <circle class="cls-49" cx="79.82" cy="79.82" r="7.15"/>
      <circle class="cls-48" cx="79.82" cy="79.82" r="6.36"/>
      <circle class="cls-47" cx="79.82" cy="79.82" r="5.56"/>
      <circle class="cls-42" cx="79.82" cy="79.82" r="4.77"/>
      <circle class="cls-44" cx="79.82" cy="79.82" r="3.97"/>
      <circle class="cls-43" cx="79.82" cy="79.82" r="3.18"/>
      <circle class="cls-43" cx="79.82" cy="79.82" r="2.38"/>
      <circle class="cls-45" cx="79.82" cy="79.82" r="1.59"/>
      <circle class="cls-46" cx="79.82" cy="79.82" r=".79"/>
    </g>
    <path class="cls-4" d="M3.55,178.47v9.16H14.32v2.89H3.55v11.27H0v-26.21H16.15v2.89H3.55Zm31.41,20.72c-.4,.49-.89,.91-1.45,1.27-.56,.36-1.16,.66-1.8,.89-.64,.23-1.3,.41-1.98,.52s-1.36,.17-2.03,.17c-1.28,0-2.46-.22-3.54-.65-1.08-.43-2.01-1.07-2.8-1.9-.79-.83-1.4-1.87-1.84-3.1-.44-1.23-.66-2.65-.66-4.24,0-1.29,.2-2.5,.6-3.62,.4-1.12,.97-2.09,1.71-2.92s1.65-1.47,2.72-1.94c1.07-.47,2.28-.7,3.62-.7,1.11,0,2.14,.19,3.08,.56,.95,.37,1.76,.91,2.45,1.61s1.23,1.57,1.62,2.6,.58,2.2,.58,3.52c0,.51-.05,.85-.16,1.02s-.32,.26-.62,.26h-12.38c.04,1.17,.2,2.19,.48,3.05,.29,.87,.69,1.59,1.2,2.17,.51,.58,1.12,1.01,1.83,1.3,.71,.29,1.5,.43,2.38,.43,.82,0,1.52-.1,2.11-.28,.59-.19,1.1-.39,1.53-.61s.78-.42,1.07-.61c.29-.19,.53-.28,.74-.28,.27,0,.48,.1,.62,.31l.91,1.19Zm-2.63-8.69c0-.76-.11-1.45-.32-2.08-.21-.63-.52-1.17-.93-1.63-.41-.46-.91-.81-1.49-1.06-.59-.25-1.25-.38-1.99-.38-1.56,0-2.8,.45-3.71,1.36-.91,.91-1.47,2.17-1.69,3.78h10.13Zm22.24-15.66v26.94h-1.94c-.46,0-.75-.23-.88-.68l-.29-2.25c-.79,.95-1.7,1.72-2.71,2.31-1.01,.58-2.18,.88-3.51,.88-1.06,0-2.02-.2-2.89-.61-.86-.41-1.6-1.01-2.21-1.8-.61-.79-1.08-1.78-1.41-2.96-.33-1.18-.5-2.54-.5-4.08,0-1.37,.18-2.64,.55-3.81,.36-1.18,.89-2.2,1.57-3.06s1.52-1.55,2.51-2.04c.99-.49,2.11-.74,3.36-.74,1.14,0,2.11,.19,2.92,.58,.81,.38,1.53,.92,2.17,1.6v-10.26h3.26Zm-3.26,12.82c-.61-.82-1.27-1.39-1.97-1.71s-1.5-.48-2.38-.48c-1.72,0-3.04,.62-3.97,1.85-.93,1.23-1.39,2.99-1.39,5.27,0,1.21,.1,2.24,.31,3.1,.21,.86,.51,1.57,.91,2.12,.4,.55,.9,.96,1.48,1.22s1.25,.38,1.99,.38c1.07,0,2.01-.24,2.81-.73,.8-.49,1.53-1.18,2.2-2.07v-8.94Zm28.55,14.12h-3.15c-.65,0-1.12-.25-1.43-.75l-6.8-9.36c-.21-.29-.43-.5-.67-.63-.24-.13-.61-.19-1.11-.19h-2.69v10.94h-3.53v-26.21h7.41c1.66,0,3.09,.17,4.3,.5,1.21,.33,2.2,.82,2.99,1.45,.79,.63,1.37,1.4,1.75,2.29,.38,.9,.57,1.9,.57,3.01,0,.93-.15,1.79-.44,2.6s-.72,1.53-1.27,2.17c-.55,.64-1.23,1.19-2.03,1.64-.8,.45-1.71,.79-2.72,1.02,.45,.26,.84,.63,1.17,1.12l7.64,10.41Zm-12.11-13.52c1.02,0,1.93-.13,2.72-.38s1.45-.6,1.98-1.06c.53-.46,.93-1,1.2-1.64,.27-.63,.4-1.33,.4-2.1,0-1.56-.51-2.74-1.54-3.53-1.02-.79-2.56-1.19-4.61-1.19h-3.88v9.9h3.73Zm36.96,13.52h-2.74c-.32,0-.57-.08-.77-.24-.2-.16-.34-.36-.44-.6l-2.45-6.33h-11.76l-2.45,6.33c-.07,.22-.21,.42-.42,.59s-.46,.26-.77,.26h-2.74l10.48-26.21h3.58l10.48,26.21Zm-7.39-9.73l-4.12-10.66c-.12-.32-.25-.69-.38-1.11-.14-.42-.26-.87-.38-1.34-.26,.99-.52,1.81-.79,2.47l-4.12,10.64h9.79Zm38.12-16.48v26.21h-3.11v-19.26c0-.26,0-.53,.03-.82,.02-.29,.04-.59,.06-.9l-9,16.39c-.28,.55-.71,.82-1.28,.82h-.51c-.57,0-1-.28-1.28-.82l-9.18-16.46c.07,.65,.11,1.24,.11,1.79v19.26h-3.11v-26.21h2.61c.32,0,.56,.03,.73,.09,.17,.06,.33,.23,.49,.51l9.05,16.13c.15,.29,.29,.6,.43,.91,.14,.32,.27,.64,.39,.97,.12-.33,.25-.66,.38-.98,.14-.32,.28-.63,.44-.92l8.89-16.11c.15-.28,.31-.45,.49-.51s.42-.09,.74-.09h2.61Zm14.43,0c1.66,0,3.1,.19,4.32,.58,1.23,.38,2.24,.93,3.05,1.64s1.41,1.56,1.8,2.56c.4,1,.6,2.12,.6,3.35s-.21,2.34-.64,3.35-1.05,1.88-1.87,2.61c-.82,.73-1.84,1.3-3.06,1.71-1.21,.41-2.61,.61-4.2,.61h-4.21v9.8h-3.53v-26.21h7.74Zm0,13.59c1.01,0,1.91-.13,2.68-.4s1.43-.64,1.96-1.13c.53-.48,.93-1.06,1.2-1.73,.27-.67,.4-1.41,.4-2.21,0-1.67-.52-2.97-1.55-3.91-1.03-.94-2.6-1.41-4.69-1.41h-4.21v10.79h4.21Z"/>
    <path class="cls-3" d="M123.43,89.48l18,34.69h-22.23l-16.54-31.57h-11.49v31.57h-20.11v-43.62c-.01-.1-.02-.19-.02-.29s.01-.19,.01-.29v-.46s.02,0,.02,0c.34-3.39,2.93-6.1,6.26-6.64v-.06s.42,0,.42,0c.26-.03,.52-.04,.79-.04,.23,0,.46,.01,.69,.03h1.54c.17-.02,.35-.02,.52-.02h32.79c1.82-.16,3.5-.85,4.89-2.03,1.95-1.66,3.08-4.09,3.08-6.67,0-3.47-2.05-6.61-5.23-8.02-1.03-.45-2.14-.7-3.29-.72l-2.66-.03H37.24s0,17.47,0,17.47h25.69v19.74h-25.69v31.64H17.12V44.68c0-5.24,4.26-9.5,9.5-9.5H113.77c15.42,.07,27.94,12.65,27.94,28.04,0,11.83-7.54,22.25-18.28,26.26Z"/>
  </g>
  <path class="cls-10" d="M164.82,149.81h8.17v1.45h-3.2v8.33h-1.77v-8.33h-3.2v-1.45Zm19.21,0v9.78h-1.54v-6.58l-2.64,5.04h-1.15l-2.62-4.92v6.46h-1.59v-9.78h1.4l3.4,6.51,3.38-6.51h1.36Z"/>
</svg>