<svg id="Group_8348" data-name="Group 8348" xmlns="http://www.w3.org/2000/svg" width="88.805" height="88.805" viewBox="0 0 88.805 88.805">
  <circle id="Ellipse_706" data-name="Ellipse 706" cx="44.403" cy="44.403" r="44.403" transform="translate(0)" fill="#d9f1fd"/>
  <g id="Group_4440" data-name="Group 4440" transform="translate(35.227 29.358)">
    <path id="Path_11344" data-name="Path 11344" d="M100.88,50.046,100.8,87.263l-42.049,5.91.084-37.217Z" transform="translate(-58.746 -50.046)" fill="#2a9fc8"/>
  </g>
  <g id="Group_4441" data-name="Group 4441" transform="translate(11.26 22.233)">
    <path id="Path_11345" data-name="Path 11345" d="M47.826,52.683,47.742,89.9,23.772,76.861l.084-37.211,9.192,5,5.518,3Z" transform="translate(-23.772 -39.65)" fill="#0a90b7"/>
  </g>
  <g id="Group_4442" data-name="Group 4442" transform="translate(11.345 16.32)">
    <path id="Path_11346" data-name="Path 11346" d="M47.863,49.969,23.9,36.931l42.049-5.91L89.912,44.059Z" transform="translate(-23.896 -31.021)" fill="#59b4d4"/>
  </g>
  <g id="Group_4443" data-name="Group 4443" transform="translate(11.26 22.233)" opacity="0.41" style="mix-blend-mode: multiply;isolation: isolate">
    <path id="Path_11347" data-name="Path 11347" d="M47.826,52.683,47.742,89.9,23.772,76.861l.084-37.211,9.192,5,5.518,3Z" transform="translate(-23.772 -39.65)" fill="#0a90b7"/>
    <path id="Path_11348" data-name="Path 11348" d="M47.826,52.683,47.742,89.9,23.772,76.861l.084-37.211,9.192,5,5.518,3Z" transform="translate(-23.772 -39.65)" fill="#0a90b7" style="mix-blend-mode: multiply;isolation: isolate"/>
  </g>
  <g id="Group_4444" data-name="Group 4444" transform="translate(20.513 28.506)">
    <path id="Path_11349" data-name="Path 11349" d="M42.815,51.8v9.362l-.4.191-.429-.674-.436.207-.429-.674-.436.207-.436-.674-.429.207-.436-.674-.429.207-.436-.666-.429.207-.436-.673-.383.184L37.3,48.8Z" transform="translate(-37.274 -48.804)" fill="#0a90b7"/>
  </g>
  <g id="Group_4445" data-name="Group 4445" transform="translate(20.536 21.321)">
    <path id="Path_11350" data-name="Path 11350" d="M42.825,47.229l-5.518-3,42.049-5.91,5.435,2.957Z" transform="translate(-37.307 -38.319)" fill="#0a90b7"/>
  </g>
  <g id="Group_4446" data-name="Group 4446" transform="translate(38.213 39.547)">
    <path id="Path_11351" data-name="Path 11351" d="M91.352,68.658c-.038,0-.074.012-.111.018A7.712,7.712,0,0,0,83.287,65a10.316,10.316,0,0,0-5.461,2.626,6.2,6.2,0,0,0-3.005-.32,7.992,7.992,0,0,0-6.73,7.666,6.454,6.454,0,0,0,.123,1.2A6.879,6.879,0,0,0,63.1,82.615a4.929,4.929,0,0,0,5.8,4.991L89.822,84.7q.382-.053.754-.143.383-.015.776-.069a9.4,9.4,0,0,0,7.914-9.014A6.729,6.729,0,0,0,91.352,68.658Z" transform="translate(-63.102 -64.915)" fill="#fff"/>
    <path id="Path_11352" data-name="Path 11352" d="M96.662,70.2a7.11,7.11,0,0,1,1.036,3.77,9.4,9.4,0,0,1-7.913,9.014,7.451,7.451,0,0,1-3.148-.215,10.712,10.712,0,0,0,6.184-9.414A7.7,7.7,0,0,0,89.454,66.8a8.2,8.2,0,0,1,.893,3.79,10.7,10.7,0,0,1-9.009,10.261,8.093,8.093,0,0,1-5.523-1.126,4.135,4.135,0,0,0,1.247-2.885,3.075,3.075,0,0,0-1.184-2.493,3.1,3.1,0,0,1,.508,1.737c0,1.919-1.488,3.814-4.269,4.2A3.463,3.463,0,0,1,71,80.257a3.162,3.162,0,0,0,2.449.661,6.919,6.919,0,0,1-5.764,5.967,5.333,5.333,0,0,1-2.916-.382A5.03,5.03,0,0,0,69.423,88.2l22.453-3.121a9.4,9.4,0,0,0,7.914-9.014A6.751,6.751,0,0,0,96.662,70.2Z" transform="translate(-63.626 -65.507)" fill="#dbf2fd"/>
  </g>
  <g id="Group_4447" data-name="Group 4447" transform="translate(16.223 42.977)">
    <path id="Path_11353" data-name="Path 11353" d="M31.936,78.071a4.068,4.068,0,0,1-.68-1.258,4.569,4.569,0,0,1-.242-1.482v-3.6a2.654,2.654,0,0,1,.242-1.231,1,1,0,0,1,.68-.556,1.518,1.518,0,0,1,1.009.193,3.115,3.115,0,0,1,1.009.824,3.976,3.976,0,0,1,.681,1.227,4.371,4.371,0,0,1,.242,1.451v.073a.138.138,0,0,1-.031.095.057.057,0,0,1-.075.012l-.817-.365a.184.184,0,0,1-.075-.081.259.259,0,0,1-.03-.12v-.147a2.268,2.268,0,0,0-.25-1.058,1.52,1.52,0,0,0-.654-.686.547.547,0,0,0-.663.019,1.06,1.06,0,0,0-.25.8v3.76A2.229,2.229,0,0,0,32.282,77a1.539,1.539,0,0,0,.663.685.547.547,0,0,0,.654-.017,1.037,1.037,0,0,0,.25-.8v-.159c0-.09.035-.117.1-.082l.817.463a.166.166,0,0,1,.106.151v.1a2.624,2.624,0,0,1-.242,1.218.98.98,0,0,1-.681.55,1.562,1.562,0,0,1-1.009-.2A3.066,3.066,0,0,1,31.936,78.071Z" transform="translate(-31.014 -69.92)" fill="#1a4480"/>
    <path id="Path_11354" data-name="Path 11354" d="M39.177,81.757a3.732,3.732,0,0,1-.676-1.164,3.921,3.921,0,0,1-.237-1.351v-.319a.112.112,0,0,1,.031-.088.062.062,0,0,1,.075,0l.79.4a.18.18,0,0,1,.075.081.26.26,0,0,1,.031.12v.245a1.975,1.975,0,0,0,.263.99,1.668,1.668,0,0,0,.7.687q.4.2.628.024a.806.806,0,0,0,.224-.658,1.663,1.663,0,0,0-.123-.632,3.162,3.162,0,0,0-.347-.617q-.224-.315-.7-.9-.536-.651-.86-1.128a4.95,4.95,0,0,1-.544-1.066,3.63,3.63,0,0,1-.219-1.275,1.645,1.645,0,0,1,.5-1.412,1.234,1.234,0,0,1,1.325.06,3.217,3.217,0,0,1,1.009.812,3.882,3.882,0,0,1,.681,1.2,4.091,4.091,0,0,1,.241,1.384V77.4a.113.113,0,0,1-.031.088.061.061,0,0,1-.074,0l-.8-.405a.175.175,0,0,1-.075-.08.258.258,0,0,1-.031-.12v-.233a2.093,2.093,0,0,0-.25-1,1.585,1.585,0,0,0-.689-.692.535.535,0,0,0-.593-.025.8.8,0,0,0-.215.657,1.685,1.685,0,0,0,.114.621,2.888,2.888,0,0,0,.347.617q.232.327.7.893.631.822.931,1.255a4.568,4.568,0,0,1,.5.985,3.4,3.4,0,0,1,.206,1.2,1.7,1.7,0,0,1-.518,1.446,1.276,1.276,0,0,1-1.387-.06A3.284,3.284,0,0,1,39.177,81.757Z" transform="translate(-33.296 -71.055)" fill="#1a4480"/>
    <path id="Path_11355" data-name="Path 11355" d="M46.389,85.41a4.091,4.091,0,0,1-.685-1.284,4.816,4.816,0,0,1-.242-1.525V79.146a2.85,2.85,0,0,1,.242-1.268,1.021,1.021,0,0,1,.685-.589,1.493,1.493,0,0,1,1.022.187,3.114,3.114,0,0,1,1.031.854,4.174,4.174,0,0,1,.689,1.286,4.741,4.741,0,0,1,.245,1.514v3.455a2.836,2.836,0,0,1-.245,1.278,1.042,1.042,0,0,1-.689.588,1.521,1.521,0,0,1-1.031-.193A3.106,3.106,0,0,1,46.389,85.41ZM48.1,85a1.19,1.19,0,0,0,.258-.867V80.578a2.523,2.523,0,0,0-.258-1.142,1.579,1.579,0,0,0-.689-.735.533.533,0,0,0-.676.043,1.228,1.228,0,0,0-.255.881v3.552a2.505,2.505,0,0,0,.255,1.127,1.545,1.545,0,0,0,.676.729A.551.551,0,0,0,48.1,85Z" transform="translate(-35.561 -72.23)" fill="#1a4480"/>
  </g>
  <g id="Group_4450" data-name="Group 4450" transform="translate(52.08 30.467)">
    <g id="Group_4448" data-name="Group 4448" transform="translate(1.468 11.845)">
      <path id="Path_11356" data-name="Path 11356" d="M93.083,87.511l-2.6-4.085L85.48,85.345l6.737-14.984,6.307,1.8Z" transform="translate(-85.48 -69.393)" fill="#a00a0f"/>
      <path id="Path_11357" data-name="Path 11357" d="M101.6,86.342l2.6-4.815,5.007.512-6.737-13.09-6.307,3.569Z" transform="translate(-88.839 -68.949)" fill="#a00a0f"/>
    </g>
    <path id="Path_11358" data-name="Path 11358" d="M106.634,61.687c0,.984-1.425,1.967-1.668,2.909-.251.974.585,2.247.109,3.136s-2.109,1.1-2.785,1.869-.645,2.393-1.479,2.993-2.211-.049-3.15.334c-.908.37-1.691,1.906-2.675,2.044s-1.768-1.177-2.675-1.292c-.939-.119-2.329.912-3.151.552s-.8-1.995-1.478-2.577-2.3-.321-2.785-1.088.36-2.262.109-3.166c-.243-.873-1.668-1.456-1.668-2.44s1.425-1.968,1.668-2.91c.251-.974-.585-2.246-.109-3.135s2.109-1.1,2.785-1.87.645-2.393,1.479-2.993,2.211.049,3.15-.334c.908-.37,1.691-1.906,2.675-2.044s1.767,1.177,2.675,1.292c.939.119,2.329-.912,3.151-.552s.8,2,1.478,2.577,2.3.321,2.785,1.088-.36,2.262-.109,3.166C105.208,60.12,106.634,60.7,106.634,61.687Z" transform="translate(-83.337 -51.665)" fill="#c71f25"/>
    <g id="Group_4449" data-name="Group 4449" transform="translate(4.099 4.035)">
      <path id="Path_11359" data-name="Path 11359" d="M104.417,64.116a8.983,8.983,0,0,1-7.55,8.61,6.409,6.409,0,0,1-7.549-6.488,8.982,8.982,0,0,1,7.549-8.611,6.41,6.41,0,0,1,7.55,6.488" transform="translate(-89.318 -57.552)" fill="#eff9fe"/>
      <path id="Path_11360" data-name="Path 11360" d="M103.691,64.926a7.388,7.388,0,0,1-6.21,7.083,5.272,5.272,0,0,1-6.21-5.338,7.389,7.389,0,0,1,6.21-7.083,5.272,5.272,0,0,1,6.21,5.337" transform="translate(-89.933 -58.174)" fill="#fff"/>
    </g>
    <path id="Path_11361" data-name="Path 11361" d="M93.216,67.3a.262.262,0,0,1,.022-.364l1.266-1.3a.257.257,0,0,1,.361-.028l1.791,1.777a.241.241,0,0,0,.351-.038l4.31-4.889a.262.262,0,0,1,.362-.049l1.191,1.031a.255.255,0,0,1,0,.361L96.9,70.575a.241.241,0,0,1-.351.038Z" transform="translate(-86.426 -55.031)" fill="#c71f25"/>
  </g>
</svg>
