<svg xmlns="http://www.w3.org/2000/svg" width="13.889" height="16.684" viewBox="0 0 13.889 16.684">
  <g id="Group_4508" data-name="Group 4508" transform="translate(-891.426 -1299.003)">
    <path id="Path_2600" data-name="Path 2600" d="M128.434,41.838a4.773,4.773,0,0,0-3.97-4.746v-.285a.761.761,0,0,0-.656-.773.734.734,0,0,0-.8.741v.317a4.773,4.773,0,0,0-3.97,4.746c0,8.272-2.247,4.932-2.247,7.4a.393.393,0,0,0,.388.4h13.112a.393.393,0,0,0,.388-.4v-.114C130.681,46.994,128.434,49.9,128.434,41.838Zm-4.7,10.877a2.462,2.462,0,0,0,2.431-2.338H121.3A2.462,2.462,0,0,0,123.736,52.715Z" transform="translate(774.634 1262.973)" fill="#c71f25"/>
  </g>
</svg>
