<svg xmlns="http://www.w3.org/2000/svg" xmlns:xlink="http://www.w3.org/1999/xlink" width="58" height="58" viewBox="0 0 58 58">
  <defs>
    <linearGradient id="linear-gradient" x1="-0.044" y1="4.915" x2="-0.044" y2="3.915" gradientUnits="objectBoundingBox">
      <stop offset="0" stop-color="#eee"/>
      <stop offset="1" stop-color="#e1e1e1"/>
    </linearGradient>
    <radialGradient id="radial-gradient" cx="0.5" cy="0.5" r="0.5" gradientTransform="matrix(0.989, -0.149, 0.149, 0.989, -4.885, -0.224)" gradientUnits="objectBoundingBox">
      <stop offset="0" stop-color="#d0d0d0"/>
      <stop offset="0.408" stop-color="#d2d2d2"/>
      <stop offset="0.711" stop-color="#dcdcdc"/>
      <stop offset="0.98" stop-color="#ececec"/>
      <stop offset="1" stop-color="#eee"/>
    </radialGradient>
    <linearGradient id="linear-gradient-2" x1="-2.248" y1="20.78" x2="-2.248" y2="19.78" gradientUnits="objectBoundingBox">
      <stop offset="0" stop-color="#c2c2c2"/>
      <stop offset="0.177" stop-color="#cecece"/>
      <stop offset="0.71" stop-color="#f0f0f0"/>
      <stop offset="1" stop-color="#fdfdfd"/>
    </linearGradient>
    <linearGradient id="linear-gradient-3" x1="-5.12" y1="41.445" x2="-5.12" y2="40.445" xlink:href="#linear-gradient-2"/>
    <filter id="Ellipse_719" x="0" y="0" width="58" height="58" filterUnits="userSpaceOnUse">
      <feOffset dy="3" input="SourceAlpha"/>
      <feGaussianBlur stdDeviation="3" result="blur"/>
      <feFlood flood-opacity="0.161"/>
      <feComposite operator="in" in2="blur"/>
      <feComposite in="SourceGraphic"/>
    </filter>
  </defs>
  <g id="Group_8297" data-name="Group 8297" transform="translate(8.86 6)">
    <g id="Circles">
      <circle id="Ellipse_713" data-name="Ellipse 713" cx="20" cy="20" r="20" transform="translate(0.14)" fill="#d9f1fd"/>
    </g>
    <g id="Group_8293" data-name="Group 8293" transform="translate(7.027 12.425)">
      <path id="Path_21715" data-name="Path 21715" d="M-334.124,1172.777a.468.468,0,0,0-.441.493.468.468,0,0,0,.493.441.468.468,0,0,0,.441-.493A.468.468,0,0,0-334.124,1172.777Z" transform="translate(353.996 -1160.112)" fill="#fff" style="mix-blend-mode: multiply;isolation: isolate"/>
      <g id="Group_8288" data-name="Group 8288" transform="translate(16.305 4.199)">
        <path id="Path_21698" data-name="Path 21698" d="M-340.959,1140.877h0l-.074-.007h0a.152.152,0,0,1-.132-.115h0l-.05-.212h0a.152.152,0,0,1,.066-.162h0l.062-.038,0,0a.152.152,0,0,0,.057-.186h0l-.076-.181h0a.15.15,0,0,0-.174-.088h0l-.072.017h0a.151.151,0,0,1-.163-.066l-.117-.185a.151.151,0,0,1,.01-.176l.047-.058h0a.152.152,0,0,0,0-.195h0l-.131-.146h0a.151.151,0,0,0-.193-.027l-.063.041a.152.152,0,0,1-.175-.009h0l-.169-.137h0a.15.15,0,0,1-.048-.168h0l.026-.07h0a.151.151,0,0,0-.069-.183h0l-.171-.1h0a.152.152,0,0,0-.191.039l-.047.059a.151.151,0,0,1-.168.048h0l-.206-.075h0a.152.152,0,0,1-.1-.145h0v-.075h0a.151.151,0,0,0-.123-.151h0l-.193-.035h0a.151.151,0,0,0-.169.1h0l-.024.07v0a.153.153,0,0,1-.143.1h0l-.218,0a.152.152,0,0,1-.142-.1h0l-.023-.071h0a.15.15,0,0,0-.166-.1l-.195.03a.152.152,0,0,0-.129.145v.079a.152.152,0,0,1-.1.14l-.207.068h0a.152.152,0,0,1-.167-.054l-.045-.06h0a.15.15,0,0,0-.19-.044h0l-.174.091h0a.151.151,0,0,0-.073.181h0l.023.071h0a.151.151,0,0,1-.053.168l-.175.131h0a.151.151,0,0,1-.175,0h0l-.061-.042a.151.151,0,0,0-.194.02l-.136.143a.15.15,0,0,0-.01.195h0l.045.059h0a.151.151,0,0,1,.005.176l-.123.182a.152.152,0,0,1-.164.061h0l-.071-.02h0a.151.151,0,0,0-.176.083h0l-.082.178h0a.151.151,0,0,0,.053.188l.062.042h0a.152.152,0,0,1,.062.164h0l-.057.211a.151.151,0,0,1-.137.111h0l-.075,0h0a.151.151,0,0,0-.141.136l-.02.2h0a.151.151,0,0,0,.112.16h0l.072.019h0a.151.151,0,0,1,.111.136h0l.015.218h0a.151.151,0,0,1-.092.149h0l-.069.028h0a.151.151,0,0,0-.089.173h0l.045.191h0a.15.15,0,0,0,.157.116h0l.073,0h0a.149.149,0,0,1,.149.091h0l.085.2h0a.151.151,0,0,1-.039.172l-.056.05h0a.15.15,0,0,0-.028.193h0l.105.166h0a.15.15,0,0,0,.186.058h0l.069-.029h0a.151.151,0,0,1,.171.038h0l.145.163h0a.149.149,0,0,1,.019.174h0l-.036.064h0a.15.15,0,0,0,.037.191h0l.153.123h0a.15.15,0,0,0,.195,0h0l.055-.05h0a.151.151,0,0,1,.174-.019h0l.191.107h0a.151.151,0,0,1,.074.158h0l-.014.073h0a.151.151,0,0,0,.1.169h0l.185.067h0a.152.152,0,0,0,.182-.068v0l.036-.065h0a.151.151,0,0,1,.159-.074h0l.215.039h0a.152.152,0,0,1,.122.125v0l.01.073v0a.151.151,0,0,0,.147.127h0l.2,0h0a.152.152,0,0,0,.151-.122v0l.012-.073v0a.152.152,0,0,1,.126-.121l.216-.033a.152.152,0,0,1,.157.078v0l.033.066h0a.151.151,0,0,0,.18.073h0l.187-.06h0a.153.153,0,0,0,.1-.166h0l-.012-.073v0a.151.151,0,0,1,.08-.155h0l.194-.1h0a.151.151,0,0,1,.174.024h0l.054.052h0a.15.15,0,0,0,.2.011l.157-.119h0a.151.151,0,0,0,.043-.19h0l-.035-.066h0a.151.151,0,0,1,.024-.173h0l.151-.159h0a.151.151,0,0,1,.172-.033h0l.068.031h0a.151.151,0,0,0,.188-.052h0l.11-.163a.151.151,0,0,0-.022-.195l-.054-.051h0a.15.15,0,0,1-.034-.173h0l.09-.2h0a.152.152,0,0,1,.152-.087h0l.074.008h0a.151.151,0,0,0,.16-.111h0l.051-.189a.15.15,0,0,0-.083-.177h0l-.067-.031h0a.15.15,0,0,1-.088-.152l.021-.217a.151.151,0,0,1,.116-.132h0l.073-.017a.15.15,0,0,0,.116-.157h0l-.013-.2A.15.15,0,0,0-340.959,1140.877Zm-5.067-.515a.111.111,0,0,1,.074-.059.111.111,0,0,1,.092.019l.536.395.4.3a.112.112,0,0,1,.042.117.111.111,0,0,1-.092.083l-1.151.174a.111.111,0,0,1-.09-.026.111.111,0,0,1-.038-.086A2.142,2.142,0,0,1-346.026,1140.362Zm.54,2.437a.111.111,0,0,1-.083.045.111.111,0,0,1-.088-.034,2.139,2.139,0,0,1-.485-.8.112.112,0,0,1,.011-.094.112.112,0,0,1,.079-.052l1.151-.174a.111.111,0,0,1,.112.053.111.111,0,0,1-.006.124l-.3.4Zm1.449.547a.112.112,0,0,1-.027.09.112.112,0,0,1-.086.038,2.14,2.14,0,0,1-.912-.226.11.11,0,0,1-.059-.074.111.111,0,0,1,.019-.092l.69-.936a.112.112,0,0,1,.117-.042.112.112,0,0,1,.084.092Zm-.427-2.825a.112.112,0,0,1-.053.112.111.111,0,0,1-.124-.006l-.4-.3-.536-.395a.112.112,0,0,1-.045-.083.112.112,0,0,1,.034-.088,2.139,2.139,0,0,1,.8-.486.112.112,0,0,1,.094.011.112.112,0,0,1,.052.078Zm.3-1.223a.111.111,0,0,1,.027-.09.111.111,0,0,1,.086-.038,2.141,2.141,0,0,1,.912.226.112.112,0,0,1,.059.074.113.113,0,0,1-.019.092l-.4.535-.3.4a.112.112,0,0,1-.117.042.112.112,0,0,1-.083-.092Zm.746,4.065a.112.112,0,0,1-.094-.011.112.112,0,0,1-.052-.078l-.174-1.151a.111.111,0,0,1,.053-.112.112.112,0,0,1,.124.006l.4.3.536.395a.11.11,0,0,1,.045.083.111.111,0,0,1-.034.088A2.135,2.135,0,0,1-343.418,1143.364Zm1.244-1.081a.111.111,0,0,1-.074.058.111.111,0,0,1-.092-.019l-.536-.4-.4-.3a.112.112,0,0,1-.042-.117.112.112,0,0,1,.092-.084l1.15-.174a.112.112,0,0,1,.09.026.112.112,0,0,1,.038.086A2.135,2.135,0,0,1-342.174,1142.284Zm-1.125-1.324a.112.112,0,0,1-.112-.053.112.112,0,0,1,.006-.124l.3-.4.395-.536a.113.113,0,0,1,.083-.045.112.112,0,0,1,.088.034,2.129,2.129,0,0,1,.485.8.11.11,0,0,1-.011.093.111.111,0,0,1-.079.052Z" transform="translate(347.382 -1138.067)" fill="#0a90b7"/>
        <g id="Group_8265" data-name="Group 8265" transform="translate(0.539 0.513)">
          <g id="Group_8264" data-name="Group 8264">
            <path id="Path_21699" data-name="Path 21699" d="M-342.839,1140.2a2.743,2.743,0,0,0-2.3,3.122,2.742,2.742,0,0,0,3.121,2.3,2.742,2.742,0,0,0,2.3-3.121A2.743,2.743,0,0,0-342.839,1140.2Zm-1.742,2.663a2.142,2.142,0,0,1,.226-.912.113.113,0,0,1,.074-.058.112.112,0,0,1,.092.018l.536.4.4.3a.112.112,0,0,1,.042.117.112.112,0,0,1-.092.083l-1.151.174a.112.112,0,0,1-.09-.026A.111.111,0,0,1-344.581,1142.864Zm.683,1.57a.111.111,0,0,1-.088-.034,2.14,2.14,0,0,1-.485-.8.112.112,0,0,1,.011-.094.112.112,0,0,1,.079-.052l1.151-.174a.111.111,0,0,1,.112.053.111.111,0,0,1-.006.124l-.3.4-.395.536A.113.113,0,0,1-343.9,1144.434Zm1.532.5a.111.111,0,0,1-.027.09.11.11,0,0,1-.086.038,2.141,2.141,0,0,1-.912-.226.111.111,0,0,1-.059-.074.112.112,0,0,1,.019-.092l.691-.937a.111.111,0,0,1,.116-.042.111.111,0,0,1,.084.091Zm-.427-2.825a.112.112,0,0,1-.053.112.111.111,0,0,1-.124-.006l-.4-.3-.536-.4a.112.112,0,0,1-.045-.083.113.113,0,0,1,.034-.088,2.142,2.142,0,0,1,.8-.486.112.112,0,0,1,.093.011.112.112,0,0,1,.052.079Zm1.831-.72a.112.112,0,0,1,.088.034,2.129,2.129,0,0,1,.485.8.111.111,0,0,1-.011.094.112.112,0,0,1-.079.052l-1.151.174a.112.112,0,0,1-.112-.053.112.112,0,0,1,.006-.124l.3-.4.395-.536A.112.112,0,0,1-340.961,1141.391Zm-1.532-.5a.112.112,0,0,1,.027-.09.112.112,0,0,1,.086-.038,2.144,2.144,0,0,1,.912.226.113.113,0,0,1,.059.074.111.111,0,0,1-.019.092l-.4.535-.3.4a.113.113,0,0,1-.117.042.112.112,0,0,1-.083-.092Zm1.551,3.58a2.14,2.14,0,0,1-.8.485.111.111,0,0,1-.094-.011.112.112,0,0,1-.052-.079l-.174-1.151a.111.111,0,0,1,.053-.112.112.112,0,0,1,.124.006l.4.3.536.395a.11.11,0,0,1,.045.083A.111.111,0,0,1-340.942,1144.469Zm.665-1.507a2.133,2.133,0,0,1-.225.912.112.112,0,0,1-.074.059.112.112,0,0,1-.092-.019l-.536-.4-.4-.3a.112.112,0,0,1-.042-.117.112.112,0,0,1,.092-.083l1.15-.174a.112.112,0,0,1,.09.027A.112.112,0,0,1-340.277,1142.962Z" transform="translate(345.172 -1140.169)" fill="url(#linear-gradient)"/>
            <g id="Group_8263" data-name="Group 8263" style="mix-blend-mode: multiply;isolation: isolate">
              <path id="Path_21700" data-name="Path 21700" d="M-342.839,1140.2a2.743,2.743,0,0,0-2.3,3.122,2.742,2.742,0,0,0,3.121,2.3,2.742,2.742,0,0,0,2.3-3.121A2.743,2.743,0,0,0-342.839,1140.2Zm-1.742,2.663a2.142,2.142,0,0,1,.226-.912.113.113,0,0,1,.074-.058.112.112,0,0,1,.092.018l.536.4.4.3a.112.112,0,0,1,.042.117.112.112,0,0,1-.092.083l-1.151.174a.112.112,0,0,1-.09-.026A.111.111,0,0,1-344.581,1142.864Zm.683,1.57a.111.111,0,0,1-.088-.034,2.14,2.14,0,0,1-.485-.8.112.112,0,0,1,.011-.094.112.112,0,0,1,.079-.052l1.151-.174a.111.111,0,0,1,.112.053.111.111,0,0,1-.006.124l-.3.4-.395.536A.113.113,0,0,1-343.9,1144.434Zm1.532.5a.111.111,0,0,1-.027.09.11.11,0,0,1-.086.038,2.141,2.141,0,0,1-.912-.226.111.111,0,0,1-.059-.074.112.112,0,0,1,.019-.092l.691-.937a.111.111,0,0,1,.116-.042.111.111,0,0,1,.084.091Zm-.427-2.825a.112.112,0,0,1-.053.112.111.111,0,0,1-.124-.006l-.4-.3-.536-.4a.112.112,0,0,1-.045-.083.113.113,0,0,1,.034-.088,2.142,2.142,0,0,1,.8-.486.112.112,0,0,1,.093.011.112.112,0,0,1,.052.079Zm1.831-.72a.112.112,0,0,1,.088.034,2.129,2.129,0,0,1,.485.8.111.111,0,0,1-.011.094.112.112,0,0,1-.079.052l-1.151.174a.112.112,0,0,1-.112-.053.112.112,0,0,1,.006-.124l.3-.4.395-.536A.112.112,0,0,1-340.961,1141.391Zm-1.532-.5a.112.112,0,0,1,.027-.09.112.112,0,0,1,.086-.038,2.144,2.144,0,0,1,.912.226.113.113,0,0,1,.059.074.111.111,0,0,1-.019.092l-.4.535-.3.4a.113.113,0,0,1-.117.042.112.112,0,0,1-.083-.092Zm1.551,3.58a2.14,2.14,0,0,1-.8.485.111.111,0,0,1-.094-.011.112.112,0,0,1-.052-.079l-.174-1.151a.111.111,0,0,1,.053-.112.112.112,0,0,1,.124.006l.4.3.536.395a.11.11,0,0,1,.045.083A.111.111,0,0,1-340.942,1144.469Zm.665-1.507a2.133,2.133,0,0,1-.225.912.112.112,0,0,1-.074.059.112.112,0,0,1-.092-.019l-.536-.4-.4-.3a.112.112,0,0,1-.042-.117.112.112,0,0,1,.092-.083l1.15-.174a.112.112,0,0,1,.09.027A.112.112,0,0,1-340.277,1142.962Z" transform="translate(345.172 -1140.169)" fill="#3ba6c5"/>
            </g>
          </g>
        </g>
        <g id="Group_8267" data-name="Group 8267" transform="translate(2.944 2.912)">
          <g id="Group_8266" data-name="Group 8266">
            <path id="Path_21701" data-name="Path 21701" d="M-334.639,1150.3a.337.337,0,0,1-.283.383.336.336,0,0,1-.383-.283.336.336,0,0,1,.282-.383A.337.337,0,0,1-334.639,1150.3Z" transform="translate(335.309 -1150.009)" fill="url(#radial-gradient)"/>
          </g>
        </g>
        <g id="Group_8269" data-name="Group 8269" transform="translate(2.738 2.706)">
          <g id="Group_8268" data-name="Group 8268">
            <path id="Path_21702" data-name="Path 21702" d="M-335.042,1149.677a.527.527,0,0,1-.442.6.527.527,0,0,1-.6-.442.527.527,0,0,1,.442-.6A.527.527,0,0,1-335.042,1149.677Z" transform="translate(336.105 -1149.213)" fill="#0a90b7"/>
            <path id="Path_21703" data-name="Path 21703" d="M-335.531,1150.243a.544.544,0,0,1-.618-.456.544.544,0,0,1,.456-.618.544.544,0,0,1,.618.456A.544.544,0,0,1-335.531,1150.243Zm-.158-1.042a.511.511,0,0,0-.429.582.511.511,0,0,0,.581.429.511.511,0,0,0,.429-.582A.511.511,0,0,0-335.689,1149.2Z" transform="translate(336.155 -1149.163)" fill="url(#linear-gradient-2)"/>
          </g>
        </g>
        <g id="Group_8271" data-name="Group 8271" transform="translate(3.016 2.983)">
          <g id="Group_8270" data-name="Group 8270">
            <path id="Path_21704" data-name="Path 21704" d="M-334.456,1150.579a.25.25,0,0,1-.209.284.25.25,0,0,1-.284-.209.25.25,0,0,1,.21-.284A.249.249,0,0,1-334.456,1150.579Z" transform="translate(334.968 -1150.35)" fill="#0a90b7"/>
            <path id="Path_21705" data-name="Path 21705" d="M-334.712,1150.829a.266.266,0,0,1-.3-.223.266.266,0,0,1,.223-.3.266.266,0,0,1,.3.223A.266.266,0,0,1-334.712,1150.829Zm-.075-.494a.234.234,0,0,0-.2.266.234.234,0,0,0,.266.2.234.234,0,0,0,.2-.266A.234.234,0,0,0-334.787,1150.335Z" transform="translate(335.017 -1150.301)" fill="url(#linear-gradient-3)"/>
          </g>
        </g>
      </g>
      <path id="Path_21716" data-name="Path 21716" d="M-381.581,1132.527a.641.641,0,0,1-.14.6.642.642,0,0,1-.583.2,4.073,4.073,0,0,1-2.413-1.358.641.641,0,0,1-.128-.6.642.642,0,0,1,.442-.432l1.309-.366a1.919,1.919,0,0,0,1.146.645Z" transform="translate(392.034 -1128.201)" fill="#fff"/>
      <g id="Group_8289" data-name="Group 8289" transform="translate(0.643 2.239)" style="mix-blend-mode: multiply;isolation: isolate">
        <path id="Path_21707" data-name="Path 21707" d="M-387.075,1141.477H-411.6l2.941-5.725-2.941-5.725h24.53l2.941,5.725Z" transform="translate(411.605 -1130.027)" fill="#e2f4fd"/>
      </g>
      <path id="Path_21717" data-name="Path 21717" d="M-363.725,1125.873a4.079,4.079,0,0,1-1.358,2.414.641.641,0,0,1-.6.128.642.642,0,0,1-.432-.442l-.367-1.31a1.922,1.922,0,0,0,.646-1.147l1.309-.366a.642.642,0,0,1,.6.141A.64.64,0,0,1-363.725,1125.873Z" transform="translate(378.132 -1124.083)" fill="#fff"/>
      <g id="Group_8290" data-name="Group 8290" transform="translate(0 1.689)">
        <path id="Path_21709" data-name="Path 21709" d="M-389.711,1139.225h-24.53l2.941-5.725-2.941-5.725h24.53l2.941,5.725Z" transform="translate(414.241 -1127.776)" fill="#c81f25"/>
        <g id="Group_8274" data-name="Group 8274" transform="translate(0 5.725)" opacity="0.63" style="mix-blend-mode: multiply;isolation: isolate">
          <path id="Path_21710" data-name="Path 21710" d="M-411.3,1151.25l-2.941,5.725h24.53l2.941-5.725Z" transform="translate(414.241 -1151.25)" fill="#c81f25"/>
        </g>
      </g>
      <g id="Group_8291" data-name="Group 8291" transform="translate(6.218 0.286)" style="mix-blend-mode: multiply;isolation: isolate">
        <path id="Path_21711" data-name="Path 21711" d="M-373.793,1128.26h0a.343.343,0,0,0-.313-.295h0l-.865-.07a.344.344,0,0,1-.294-.223l-.221-.594h0a.344.344,0,0,1,.077-.361h0l.605-.619h0a.344.344,0,0,0,.042-.429h0l-.33-.5h0a.345.345,0,0,0-.41-.133h0l-.806.312-.005,0a.345.345,0,0,1-.359-.075h0l-.456-.437h0a.345.345,0,0,1-.089-.357v0l.278-.821a.343.343,0,0,0-.149-.4h0l-.514-.309h0a.344.344,0,0,0-.426.061h0l-.593.632h0a.343.343,0,0,1-.357.092h0l-.6-.2h0a.347.347,0,0,1-.235-.283v0l-.105-.859v0a.344.344,0,0,0-.31-.3h0l-.6-.056h0a.344.344,0,0,0-.358.239v0l-.259.826v0a.345.345,0,0,1-.282.235h0l-.627.084h0a.344.344,0,0,1-.333-.153l0,0-.469-.728h0a.344.344,0,0,0-.409-.136l-.562.21h0a.345.345,0,0,0-.22.372l.125.858v0a.345.345,0,0,1-.152.335h0l-.528.347h0a.345.345,0,0,1-.367.009l0,0-.736-.453h0a.345.345,0,0,0-.427.057h0l-.416.433h0a.344.344,0,0,0-.036.429h0l.485.719a.343.343,0,0,1,.009.369h0l-.325.544a.344.344,0,0,1-.329.166l-.864-.089h0a.346.346,0,0,0-.361.235v0l-.186.571a.344.344,0,0,0,.153.4l.749.438h0a.345.345,0,0,1,.17.329l-.058.63a.344.344,0,0,1-.226.292h0l-.813.294,0,0a.346.346,0,0,0-.221.368h0l.08.6a.343.343,0,0,0,.313.3h0l.863.07a.344.344,0,0,1,.3.223l.222.593a.346.346,0,0,1-.076.362h0l-.6.619h0a.344.344,0,0,0-.042.428v0l.331.5h0a.345.345,0,0,0,.41.133h0l.806-.312.006,0a.349.349,0,0,1,.358.073l0,0,.456.438h0a.345.345,0,0,1,.089.357v0l-.278.821a.343.343,0,0,0,.149.4h0l.514.309h0a.343.343,0,0,0,.427-.06h0l.593-.631h0a.341.341,0,0,1,.357-.091h0l.6.2h0a.344.344,0,0,1,.235.283v0l.105.86v0a.344.344,0,0,0,.31.3l.6.055a.344.344,0,0,0,.359-.238v0l.259-.826v0a.343.343,0,0,1,.282-.235h0l.627-.084h0a.343.343,0,0,1,.333.153l0,0,.469.728h0a.344.344,0,0,0,.409.137h0l.562-.211h0a.343.343,0,0,0,.22-.371l-.124-.858v0a.345.345,0,0,1,.152-.335h0l.527-.348h0a.347.347,0,0,1,.365-.007l.005,0,.736.453h0a.345.345,0,0,0,.427-.057h0l.416-.433h0a.343.343,0,0,0,.036-.429h0l-.483-.718h0a.344.344,0,0,1-.01-.369h0l.325-.544a.344.344,0,0,1,.329-.166l.863.088h0a.342.342,0,0,0,.361-.233v0l.187-.571a.343.343,0,0,0-.153-.4h0l-.749-.438a.347.347,0,0,1-.17-.33l.058-.63a.347.347,0,0,1,.227-.293l.816-.295h0a.342.342,0,0,0,.223-.37Zm-12.542.172a5.233,5.233,0,0,1,4.923-4.1.256.256,0,0,1,.194.079.256.256,0,0,1,.069.2l-.112,1.223a.253.253,0,0,1-.234.23,3.512,3.512,0,0,0-3.123,2.6.255.255,0,0,1-.269.189l-1.222-.112a.254.254,0,0,1-.182-.1A.256.256,0,0,1-386.334,1128.432Zm4.287,6.011a.254.254,0,0,1-.1.182.254.254,0,0,1-.2.043,5.231,5.231,0,0,1-4.1-4.924.255.255,0,0,1,.079-.194.256.256,0,0,1,.2-.068l1.223.111a.254.254,0,0,1,.23.234,3.512,3.512,0,0,0,2.6,3.122.254.254,0,0,1,.189.269Zm.708-2.72a2.1,2.1,0,0,1-1.9-2.28,2.1,2.1,0,0,1,2.28-1.9,2.1,2.1,0,0,1,1.9,2.28A2.1,2.1,0,0,1-381.339,1131.723Zm5.219-1.035a5.232,5.232,0,0,1-4.923,4.1.255.255,0,0,1-.194-.08.255.255,0,0,1-.069-.2l.112-1.224a.254.254,0,0,1,.234-.23,3.511,3.511,0,0,0,3.123-2.6.254.254,0,0,1,.269-.189l1.223.112a.255.255,0,0,1,.182.1A.255.255,0,0,1-376.12,1130.688Zm.04-1.119a.255.255,0,0,1-.2.069l-1.223-.112a.254.254,0,0,1-.23-.234,3.512,3.512,0,0,0-2.6-3.122.254.254,0,0,1-.188-.269l.112-1.223a.255.255,0,0,1,.1-.182.255.255,0,0,1,.2-.043,5.233,5.233,0,0,1,4.1,4.923A.255.255,0,0,1-376.08,1129.57Z" transform="translate(388.745 -1122.021)" fill="#d9f1fd"/>
        <path id="Path_21712" data-name="Path 21712" d="M-360.831,1148.416a1.609,1.609,0,0,0-1.455-1.749,1.609,1.609,0,0,0-1.748,1.456,1.609,1.609,0,0,0,1.456,1.749A1.609,1.609,0,0,0-360.831,1148.416Z" transform="translate(370.066 -1140.651)" fill="#c2e9f9"/>
      </g>
      <g id="Group_8292" data-name="Group 8292" transform="translate(5.932)">
        <path id="Path_21713" data-name="Path 21713" d="M-374.966,1127.087v0a.343.343,0,0,0-.312-.295h0l-.865-.07a.343.343,0,0,1-.294-.223l-.222-.594h0a.343.343,0,0,1,.077-.36h0l.605-.619h0a.344.344,0,0,0,.042-.429h0l-.33-.5h0a.345.345,0,0,0-.411-.133h0l-.806.312-.005,0a.346.346,0,0,1-.359-.075h0l-.456-.437h0a.345.345,0,0,1-.089-.357v0l.278-.821a.343.343,0,0,0-.15-.4h0l-.514-.309h0a.344.344,0,0,0-.426.061h0l-.593.632h0a.343.343,0,0,1-.357.091h0l-.6-.2h0a.347.347,0,0,1-.235-.282v0l-.105-.859v0a.344.344,0,0,0-.309-.3h0l-.6-.056h0a.345.345,0,0,0-.358.239v0l-.259.826v0a.345.345,0,0,1-.282.235h0l-.627.084h0a.344.344,0,0,1-.333-.153l0,0-.469-.728h0a.344.344,0,0,0-.409-.137l-.562.21h0a.345.345,0,0,0-.22.372l.125.858v0a.345.345,0,0,1-.152.335h0l-.528.347h0a.346.346,0,0,1-.367.009l0,0-.736-.453h0a.345.345,0,0,0-.427.056h0l-.416.433h0a.345.345,0,0,0-.036.429h0l.485.719a.343.343,0,0,1,.009.368h0l-.326.544a.343.343,0,0,1-.329.166l-.863-.089h0a.346.346,0,0,0-.361.235v0l-.186.571a.344.344,0,0,0,.153.4l.748.438h0a.344.344,0,0,1,.17.329l-.058.63a.344.344,0,0,1-.226.292h0l-.814.294,0,0a.346.346,0,0,0-.22.368h0l.08.6a.342.342,0,0,0,.312.3h0l.864.07a.343.343,0,0,1,.3.223l.222.593a.346.346,0,0,1-.076.362h0l-.6.618h0a.343.343,0,0,0-.042.428v0l.33.5h0a.345.345,0,0,0,.41.133h0l.806-.312.006,0a.348.348,0,0,1,.358.073l0,0,.456.438h0a.344.344,0,0,1,.089.357v0l-.278.821a.343.343,0,0,0,.149.405h0l.514.309h0a.344.344,0,0,0,.427-.06h0l.593-.631h0a.34.34,0,0,1,.356-.091h0l.6.2h0a.345.345,0,0,1,.235.283v0l.105.86v0a.344.344,0,0,0,.31.3l.6.055a.344.344,0,0,0,.359-.238v0l.259-.827v0a.343.343,0,0,1,.282-.236h0l.627-.084h0a.344.344,0,0,1,.333.154v0l.469.728h0a.343.343,0,0,0,.408.137h0l.561-.211h0a.343.343,0,0,0,.22-.371l-.124-.858v0a.345.345,0,0,1,.152-.335h0l.527-.348h0a.349.349,0,0,1,.365-.007l.005,0,.736.453h0a.345.345,0,0,0,.427-.057h0l.416-.433h0a.344.344,0,0,0,.036-.429h0l-.483-.718h0a.344.344,0,0,1-.01-.369h0l.326-.544a.344.344,0,0,1,.329-.166l.863.088h0a.343.343,0,0,0,.361-.234h0l.186-.571a.343.343,0,0,0-.153-.4h0l-.749-.438a.347.347,0,0,1-.17-.33l.058-.63a.347.347,0,0,1,.227-.293l.816-.3h0a.343.343,0,0,0,.223-.37Zm-12.542.172a5.232,5.232,0,0,1,4.923-4.1.254.254,0,0,1,.194.079.254.254,0,0,1,.069.2l-.112,1.223a.254.254,0,0,1-.234.23,3.512,3.512,0,0,0-3.123,2.6.254.254,0,0,1-.269.189l-1.223-.111a.256.256,0,0,1-.182-.1A.255.255,0,0,1-387.508,1127.259Zm4.287,6.012a.255.255,0,0,1-.1.182.255.255,0,0,1-.205.043,5.231,5.231,0,0,1-4.1-4.924.253.253,0,0,1,.079-.194.256.256,0,0,1,.2-.069l1.223.112a.254.254,0,0,1,.23.234,3.512,3.512,0,0,0,2.6,3.122.254.254,0,0,1,.189.269Zm.708-2.72a2.1,2.1,0,0,1-1.9-2.28,2.1,2.1,0,0,1,2.28-1.9,2.1,2.1,0,0,1,1.9,2.28A2.1,2.1,0,0,1-382.512,1130.55Zm5.219-1.035a5.232,5.232,0,0,1-4.923,4.1.254.254,0,0,1-.194-.08.255.255,0,0,1-.069-.2l.112-1.224a.253.253,0,0,1,.234-.23,3.512,3.512,0,0,0,3.123-2.6.254.254,0,0,1,.269-.189l1.223.112a.254.254,0,0,1,.182.1A.254.254,0,0,1-377.293,1129.515Zm.04-1.119a.255.255,0,0,1-.2.069l-1.222-.112a.254.254,0,0,1-.23-.234,3.512,3.512,0,0,0-2.6-3.122.255.255,0,0,1-.189-.269l.112-1.223a.254.254,0,0,1,.1-.182.255.255,0,0,1,.205-.043,5.233,5.233,0,0,1,4.1,4.923A.255.255,0,0,1-377.253,1128.4Z" transform="translate(389.918 -1120.848)" fill="#fff"/>
        <path id="Path_21714" data-name="Path 21714" d="M-362.088,1147.2a1.567,1.567,0,0,0-1.417-1.7,1.567,1.567,0,0,0-1.7,1.418,1.567,1.567,0,0,0,1.418,1.7A1.567,1.567,0,0,0-362.088,1147.2Z" transform="translate(371.239 -1139.479)" fill="#fff"/>
      </g>
    </g>
    <g transform="matrix(1, 0, 0, 1, -8.86, -6)" filter="url(#Ellipse_719)">
      <g id="Ellipse_719-2" data-name="Ellipse 719" transform="translate(9 6)" fill="none" stroke="#174188" stroke-width="2">
        <circle cx="20" cy="20" r="20" stroke="none"/>
        <circle cx="20" cy="20" r="19" fill="none"/>
      </g>
    </g>
  </g>
</svg>
