<?xml version="1.0" encoding="utf-8"?>
<!-- Generator: Adobe Illustrator 24.3.0, SVG Export Plug-In . SVG Version: 6.00 Build 0)  -->
<svg version="1.1" id="Layer_1" xmlns="http://www.w3.org/2000/svg" xmlns:xlink="http://www.w3.org/1999/xlink" x="0px" y="0px"
	 viewBox="0 0 19.5 19.5" style="enable-background:new 0 0 19.5 19.5;" xml:space="preserve">
<style type="text/css">
	.st0{fill:#FCFCFC;}
</style>
<path id="Path_1467" class="st0" d="M19.1,17l-4.2-4.2c2.6-3.7,1.6-8.8-2.1-11.3C9.1-1.1,4-0.2,1.4,3.5c-2.6,3.7-1.6,8.8,2.1,11.3
	c2.8,1.9,6.5,1.9,9.3,0l4.2,4.2c0.6,0.6,1.5,0.6,2.1,0S19.6,17.6,19.1,17z M3.8,12.5c-2.4-2.4-2.4-6.3,0-8.8c2.4-2.4,6.3-2.4,8.8,0
	c2.4,2.4,2.4,6.3,0,8.8C10.1,15,6.2,15,3.8,12.5L3.8,12.5z"/>
</svg>
